HIERARCHY
ROOT Hips
{
	OFFSET -0.001795 -0.223333 0.028219
	CHANNELS 6 Xposition Yposition Zposition Zrotation Yrotation Xrotation 
	JOINT LeftUpLeg
	{
		OFFSET 0.069520 -0.091406 -0.006815
		CHANNELS 3 Zrotation Yrotation Xrotation
		JOINT LeftLeg
		{
			OFFSET 0.034277 -0.375199 -0.004496
			CHANNELS 3 Zrotation Yrotation Xrotation
			JOINT LeftFoot
			{
				OFFSET -0.013596 -0.397961 -0.043693
				CHANNELS 3 Zrotation Yrotation Xrotation
				JOINT LeftToe
				{
					OFFSET 0.026358 -0.055791 0.119288
					CHANNELS 3 Zrotation Yrotation Xrotation
					End Site
					{
						OFFSET 0.000000 0.000000 0.000000
					}
				}
			}
		}
	}
	JOINT RightUpLeg
	{
		OFFSET -0.067670 -0.090522 -0.004320
		CHANNELS 3 Zrotation Yrotation Xrotation
		JOINT RightLeg
		{
			OFFSET -0.038290 -0.382569 -0.008850
			CHANNELS 3 Zrotation Yrotation Xrotation
			JOINT RightFoot
			{
				OFFSET 0.015774 -0.398415 -0.042312
				CHANNELS 3 Zrotation Yrotation Xrotation
				JOINT RightToe
				{
					OFFSET -0.025372 -0.048144 0.123348
					CHANNELS 3 Zrotation Yrotation Xrotation
					End Site
					{
						OFFSET 0.000000 0.000000 0.000000
					}
				}
			}
		}
	}
	JOINT Spine
	{
		OFFSET -0.002533 0.108963 -0.026696
		CHANNELS 3 Zrotation Yrotation Xrotation
		JOINT Spine1
		{
			OFFSET 0.005487 0.135180 0.001092
			CHANNELS 3 Zrotation Yrotation Xrotation
			JOINT Spine2
			{
				OFFSET 0.001457 0.052922 0.025425
				CHANNELS 3 Zrotation Yrotation Xrotation
				JOINT Neck
				{
					OFFSET -0.002778 0.213870 -0.042857
					CHANNELS 3 Zrotation Yrotation Xrotation
					JOINT Head
					{
						OFFSET 0.005152 0.064970 0.051349
						CHANNELS 3 Zrotation Yrotation Xrotation
						End Site
						{
							OFFSET 0.000000 0.000000 0.000000
						}
					}
				}
				JOINT LeftShoulder
				{
					OFFSET 0.078845 0.121749 -0.034090
					CHANNELS 3 Zrotation Yrotation Xrotation
					JOINT LeftArm
					{
						OFFSET 0.090977 0.030469 -0.008868
						CHANNELS 3 Zrotation Yrotation Xrotation
						JOINT LeftForeArm
						{
							OFFSET 0.259612 -0.012772 -0.027456
							CHANNELS 3 Zrotation Yrotation Xrotation
							JOINT LeftHand
							{
								OFFSET 0.249234 0.008986 -0.001171
								CHANNELS 3 Zrotation Yrotation Xrotation
								End Site
								{
									OFFSET 0.000000 0.000000 0.000000
								}
							}
						}
					}
				}
				JOINT RightShoulder
				{
					OFFSET -0.081759 0.118833 -0.038615
					CHANNELS 3 Zrotation Yrotation Xrotation
					JOINT RightArm
					{
						OFFSET -0.096012 0.032551 -0.009143
						CHANNELS 3 Zrotation Yrotation Xrotation
						JOINT RightForeArm
						{
							OFFSET -0.253742 -0.013329 -0.021401
							CHANNELS 3 Zrotation Yrotation Xrotation
							JOINT RightHand
							{
								OFFSET -0.255298 0.007772 -0.005559
								CHANNELS 3 Zrotation Yrotation Xrotation
								End Site
								{
									OFFSET 0.000000 0.000000 0.000000
								}
							}
						}
					}
				}
			}
		}
	}
}
MOTION
Frames: 15
Frame Time: 0.050000
-0.021857 0.842220 0.114753 -0.107768 -0.695773 -6.628959 22.082371 0.763704 -6.205485 -9.305652 2.257907 25.104122 6.089232 10.888688 -7.888445 0.000000 0.000000 0.000000 -17.254200 -0.545707 -14.116722 2.201892 0.731376 35.274848 -2.129585 1.103872 -11.852946 0.000000 0.000000 0.000000 9.169702 -1.656117 14.901874 -7.777223 2.439612 -27.014930 -4.961467 5.209821 21.223813 7.881509 -1.411393 -30.640698 0.000000 0.000000 0.000000 -10.667292 -20.017228 7.419101 -42.862731 -31.632236 4.339519 1.735687 -40.447563 0.744740 0.000000 0.000000 0.000000 20.882714 6.588913 3.855986 50.956695 34.921978 8.053488 3.455428 35.066384 2.997156 0.000000 0.000000 0.000000 
-0.022771 0.841549 0.117772 -0.092698 -0.559450 -7.099071 22.168992 0.666510 -5.100538 -9.298347 2.199765 24.347223 6.066870 10.665948 -8.430008 0.000000 0.000000 0.000000 -17.447838 -0.527823 -12.751964 2.479714 0.570829 34.325247 -2.324486 1.139087 -12.844241 0.000000 0.000000 0.000000 9.453895 -1.566275 14.002658 -7.869469 2.477152 -26.755890 -4.610539 5.647619 21.792169 7.879125 -1.435439 -30.010563 0.000000 0.000000 0.000000 -10.577524 -19.511694 7.119621 -44.389437 -30.919278 4.244414 0.425064 -39.967184 1.195455 0.000000 0.000000 0.000000 20.814408 6.255511 3.817353 51.678646 33.654210 7.551511 4.253737 34.173564 3.183604 0.000000 0.000000 0.000000 
-0.023716 0.841081 0.120519 -0.146863 -0.011446 -7.415610 22.287958 0.571856 -4.458081 -9.211104 2.090904 23.777239 5.944168 10.160202 -8.870309 0.000000 0.000000 0.000000 -17.306101 -0.507118 -11.583514 2.365945 0.534564 33.667058 -2.563640 0.707819 -13.601684 0.000000 0.000000 0.000000 9.806382 -1.524246 13.359088 -8.036146 2.531981 -26.622146 -4.508906 5.758581 22.051562 7.623058 -1.346829 -29.144330 0.000000 0.000000 0.000000 -10.305622 -19.207349 6.897750 -45.799088 -30.297364 4.179235 -0.794347 -39.385082 1.593333 0.000000 0.000000 0.000000 20.881941 5.662724 3.618881 52.444037 32.215985 6.996328 5.292005 33.479926 3.447587 0.000000 0.000000 0.000000 
-0.024566 0.840008 0.123107 -0.190249 0.316441 -7.754271 22.259965 0.498657 -3.880388 -8.888184 1.942597 23.522876 5.918708 9.868944 -9.451631 0.000000 0.000000 0.000000 -17.254469 -0.500189 -10.793070 2.374018 0.491263 33.527586 -2.742477 0.473196 -14.285113 0.000000 0.000000 0.000000 9.996904 -1.436202 12.571097 -7.977875 2.524010 -26.626329 -4.270166 5.828620 22.639549 6.998440 -1.004882 -28.885080 0.000000 0.000000 0.000000 -9.775177 -18.568318 6.564066 -47.448677 -29.768694 4.118281 -1.875170 -38.652059 1.950263 0.000000 0.000000 0.000000 20.270024 5.297588 3.456476 53.755533 30.831102 6.586964 5.544906 32.816605 3.478745 0.000000 0.000000 0.000000 
-0.025286 0.839215 0.125777 -0.166594 0.832976 -7.686076 22.251128 0.436737 -3.764359 -8.795124 1.857848 23.181508 5.866432 9.525415 -9.894905 0.000000 0.000000 0.000000 -17.188148 -0.484130 -9.957590 2.258254 0.455637 32.712274 -3.009362 -0.045748 -15.170335 0.000000 0.000000 0.000000 10.077017 -1.362096 11.853776 -8.165835 2.577814 -26.475299 -4.130377 5.577667 22.663008 6.611473 -0.829912 -28.472085 0.000000 0.000000 0.000000 -9.662800 -18.192293 6.389832 -48.636590 -29.283792 4.079760 -2.833091 -37.170367 2.206087 0.000000 0.000000 0.000000 20.097201 4.967126 3.276773 54.740690 29.400863 6.100841 5.956581 32.198731 3.530785 0.000000 0.000000 0.000000 
-0.025883 0.837957 0.128754 -0.115778 1.035272 -7.653771 22.265287 0.407480 -3.660397 -8.783558 1.839010 23.201521 5.890864 9.412136 -10.350822 0.000000 0.000000 0.000000 -17.195914 -0.463714 -9.299229 2.195395 0.444173 32.101209 -3.233680 -0.292438 -16.120397 0.000000 0.000000 0.000000 10.266434 -1.282808 11.099414 -8.379988 2.601352 -26.867584 -3.966706 5.771058 23.166757 6.186528 -0.604419 -28.017187 0.000000 0.000000 0.000000 -9.272557 -17.679333 6.124568 -50.302128 -28.573743 3.913886 -3.580907 -35.821101 2.371179 0.000000 0.000000 0.000000 19.744909 4.301965 2.978762 56.084756 27.839544 5.545315 6.744044 31.601422 3.717720 0.000000 0.000000 0.000000 
-0.026456 0.837242 0.131940 -0.177271 1.426230 -7.448833 22.316963 0.384608 -3.886040 -8.643246 1.768537 23.344943 5.863785 9.193707 -10.631153 0.000000 0.000000 0.000000 -17.156308 -0.453217 -8.813518 2.307075 0.338430 31.587068 -3.417911 -0.724944 -16.749390 0.000000 0.000000 0.000000 10.438272 -1.190069 10.200406 -8.463042 2.610421 -27.028461 -3.945683 5.770824 23.256042 6.083562 -0.560361 -27.547683 0.000000 0.000000 0.000000 -8.781275 -17.166988 5.864405 -51.909069 -27.540986 3.616162 -4.940076 -34.045805 2.666360 0.000000 0.000000 0.000000 19.464776 3.395075 2.523635 57.701127 26.149267 5.004568 7.600875 30.394772 3.804732 0.000000 0.000000 0.000000 
-0.027010 0.835910 0.135188 -0.213660 1.547670 -7.418867 22.300276 0.373956 -3.910414 -8.402530 1.692244 23.686937 5.919317 9.167605 -11.077041 0.000000 0.000000 0.000000 -17.222933 -0.440083 -8.331706 2.511535 0.235570 31.247924 -3.580141 -0.870242 -17.528609 0.000000 0.000000 0.000000 10.473307 -1.102630 9.513080 -8.557568 2.608098 -27.382904 -3.699243 6.011236 23.663909 5.575692 -0.305156 -26.846782 0.000000 0.000000 0.000000 -8.299066 -16.719418 5.635834 -53.722613 -26.578451 3.295147 -5.985886 -32.254944 2.828613 0.000000 0.000000 0.000000 18.863395 2.683262 2.180196 59.472525 24.163074 4.279494 8.101527 29.476595 3.834834 0.000000 0.000000 0.000000 
-0.027526 0.834726 0.138729 -0.317990 1.908584 -7.436235 22.414576 0.374615 -4.208625 -8.223181 1.622515 24.436426 5.881979 8.908099 -11.355875 0.000000 0.000000 0.000000 -17.007629 -0.428407 -7.929107 2.391899 0.242138 31.319803 -3.741440 -1.286720 -18.105475 0.000000 0.000000 0.000000 10.453102 -1.023521 8.901329 -8.763117 2.658318 -27.309643 -3.565690 5.826635 23.375612 5.500249 -0.286786 -26.530452 0.000000 0.000000 0.000000 -8.108653 -16.392473 5.485470 -54.996415 -25.192199 2.780894 -6.844095 -30.561957 2.911726 0.000000 0.000000 0.000000 19.043040 1.978310 1.801315 60.184610 22.242476 3.389267 8.818338 28.126060 3.790341 0.000000 0.000000 0.000000 
-0.028000 0.833320 0.143080 -0.411448 1.992142 -7.608452 22.518931 0.377459 -4.219106 -8.027243 1.566711 25.274117 5.899626 8.827738 -11.654831 0.000000 0.000000 0.000000 -17.095078 -0.417157 -7.325676 2.708705 0.105118 31.241194 -3.863526 -1.329301 -18.799185 0.000000 0.000000 0.000000 10.220107 -0.965091 8.613639 -8.660097 2.614776 -27.678647 -3.412661 6.094438 23.211899 5.233508 -0.095563 -26.340791 0.000000 0.000000 0.000000 -7.696539 -15.818911 5.203533 -55.959338 -23.862979 2.189285 -8.091457 -28.707209 3.029865 0.000000 0.000000 0.000000 18.859218 1.351818 1.517264 61.033018 20.305079 2.498620 9.407854 26.715587 3.708453 0.000000 0.000000 0.000000 
-0.028483 0.831954 0.148482 -0.442557 2.066973 -7.866651 22.493099 0.352756 -3.952965 -7.715722 1.464258 25.931055 5.930581 8.761115 -12.005815 0.000000 0.000000 0.000000 -17.192245 -0.406074 -6.681815 2.912675 0.018607 31.371669 -3.975783 -1.351810 -19.452468 0.000000 0.000000 0.000000 10.030395 -0.883508 8.143007 -8.738160 2.628024 -27.785759 -3.243688 6.103800 23.091015 5.358021 -0.215507 -25.831757 0.000000 0.000000 0.000000 -7.578864 -15.250890 4.965788 -56.313734 -21.832918 1.215847 -9.775131 -27.077087 3.248227 0.000000 0.000000 0.000000 18.985168 0.551488 1.092279 61.368378 18.490871 1.550774 10.181584 25.778300 3.732569 0.000000 0.000000 0.000000 
-0.029104 0.830456 0.154584 -0.459829 1.934261 -8.014838 22.597228 0.327293 -3.517672 -7.649307 1.458249 26.321043 6.008172 8.855106 -12.379607 0.000000 0.000000 0.000000 -17.250779 -0.378217 -6.131164 3.041412 -0.015805 31.425870 -4.102515 -1.257613 -20.229596 0.000000 0.000000 0.000000 9.790673 -0.798142 7.642742 -8.643255 2.592773 -28.038952 -3.174392 6.379562 22.852674 5.196605 -0.116851 -25.523215 0.000000 0.000000 0.000000 -7.326254 -14.598047 4.678670 -56.611773 -19.946815 0.306653 -11.900237 -25.648327 3.534281 0.000000 0.000000 0.000000 18.935368 -0.338951 0.641007 62.288135 16.319954 0.495848 10.856992 24.915779 3.753787 0.000000 0.000000 0.000000 
-0.029877 0.829068 0.160580 -0.806359 2.049681 -8.280903 22.881436 0.308791 -3.319324 -7.193979 1.291640 27.102267 6.019252 8.729418 -12.689863 0.000000 0.000000 0.000000 -17.010630 -0.358559 -5.611876 3.328417 -0.146991 31.873391 -4.185790 -1.357187 -20.679653 0.000000 0.000000 0.000000 9.604588 -0.742068 7.327992 -8.612390 2.581830 -28.159902 -2.989731 6.195503 22.723980 5.380474 -0.248648 -25.441687 0.000000 0.000000 0.000000 -7.384995 -14.076165 4.478551 -56.443014 -18.415994 -0.426780 -12.839887 -24.337444 3.546659 0.000000 0.000000 0.000000 19.359932 -0.921625 0.307031 62.141297 14.496001 -0.545702 11.042936 24.116994 3.645549 0.000000 0.000000 0.000000 
-0.030773 0.827551 0.165882 -0.977360 1.518098 -8.586135 22.999987 0.340689 -3.023081 -6.823112 1.215137 28.191121 6.119302 9.100718 -12.679690 0.000000 0.000000 0.000000 -16.838935 -0.315139 -5.334395 3.353025 -0.090176 32.338638 -4.255756 -0.929676 -21.274796 0.000000 0.000000 0.000000 9.360964 -0.703395 7.227550 -8.369995 2.519958 -28.331005 -2.989749 6.495745 22.603910 5.356185 -0.251043 -25.274375 0.000000 0.000000 0.000000 -7.206502 -13.310524 4.181300 -56.534877 -17.556843 -0.856879 -13.988680 -22.806338 3.544457 0.000000 0.000000 0.000000 19.693778 -1.409888 0.042472 62.558232 13.138070 -1.288551 10.980983 23.337700 3.502983 0.000000 0.000000 0.000000 
-0.031550 0.826249 0.170406 -1.384429 1.258338 -8.681479 23.209852 0.400066 -3.304201 -6.198009 1.010914 29.572227 6.169686 9.332830 -12.528891 0.000000 0.000000 0.000000 -16.431210 -0.288982 -5.428102 3.479863 -0.113499 33.115364 -4.288562 -0.798803 -21.500844 0.000000 0.000000 0.000000 9.285729 -0.659834 6.940085 -8.340562 2.509040 -28.403154 -2.865703 6.278933 22.476539 5.729354 -0.574527 -24.900433 0.000000 0.000000 0.000000 -7.344233 -13.287159 4.209986 -56.180210 -16.885129 -1.148604 -14.671296 -21.924377 3.544280 0.000000 0.000000 0.000000 20.053128 -1.929412 -0.335343 62.354544 11.784937 -2.061502 11.388362 22.401438 3.399813 0.000000 0.000000 0.000000 
